# xmcd
#
# Track frame offsets:
#	183
#	15253
#	28620
#	41353
#	55475
#	67755
#	81325
#	94998
#	105628
#	121635
#
# Disc length: 1796 seconds
#
# Revision: 1
# Processed by: cddbd v1.5.2PL0 Copyright (c) Steve Scherf et al.
# Submitted via: audiograbber 1.83.01
#
DISCID=7007020a
DTITLE=Renée Martel - C'est mon histoire
DYEAR=1989
DGENRE=Pop
TTITLE0=C'est mon histoire
TTITLE1=Une vie sans toi
TTITLE2=Nous on aime la musique country
TTITLE3=Je t'appartiens
TTITLE4=De villes en villages
TTITLE5=Quelqu'un quelque part à besoin de toi
TTITLE6=Valse au clair de lune
TTITLE7=Ne dis rien
TTITLE8=Divorce
TTITLE9=Dors bien mon ange
EXTD=LP and cassette originally released in 1983.  CD released in 1989.
EXTT0=
EXTT1=
EXTT2=avec  la participation de Noëlla Therrien et Marcel Martel
EXTT3=
EXTT4=
EXTT5=
EXTT6=
EXTT7=
EXTT8=
EXTT9=
PLAYORDER=
